<?xml version="1.0" standalone="no"?><!DOCTYPE svg PUBLIC "-//W3C//DTD SVG 1.1//EN" "http://www.w3.org/Graphics/SVG/1.1/DTD/svg11.dtd"><svg t="1704943320745" class="icon" viewBox="0 0 1024 1024" version="1.1" xmlns="http://www.w3.org/2000/svg" p-id="1733" width="48" height="48" xmlns:xlink="http://www.w3.org/1999/xlink"><path d="M131.242667 147.392c-0.64 0.64-1.216 1.365333-1.813334 2.005333l-0.042666 0.064-0.149334 0.256c1.28-1.408 1.898667-2.154667 2.069334-2.432l-0.064 0.106667z" p-id="1734"></path><path d="M926.997333 614.997333H731.946667V167.125333a95.082667 95.082667 0 0 0-9.386667-40.938666c-12.544-26.794667-40.106667-43.242667-68.842667-45.930667-3.285333-0.298667-6.528-0.277333-9.813333-0.277333H149.802667c-13.973333 0-27.733333 3.264-40.213334 9.557333-29.589333 14.72-45.290667 46.933333-45.290666 78.933333v676.394667c0 6.890667-0.341333 13.952 0.426666 20.8 1.621333 14.229333 5.333333 28.181333 13.589334 40.128 8.085333 11.733333 18.389333 22.229333 31.274666 28.629333a88.746667 88.746667 0 0 0 40.192 9.578667c30.72 0 61.418667-0.128 92.096-0.170667l171.733334-0.362666 163.626666-0.32c23.68 0 47.402667-0.149333 71.104-0.128 46.293333 0 92.565333 0.213333 138.837334 0.341333h18.773333c6.762667 0.469333 13.568 0.597333 20.373333 0.597333 42.837333-0.298667 81.258667-21.077333 106.517334-55.232 16.96-22.890667 24.149333-51.157333 24.149333-79.338666v-164.394667c0-16.234667-13.738667-29.994667-29.994667-29.994667z m-179.242666 234.794667l1.002666 1.28c-0.533333-0.533333-1.066667-1.130667-1.002666-1.28zM668.437333 151.253333a1.749333 1.749333 0 0 0-0.234666-0.490666 1.066667 1.066667 0 0 1 0.234666 0.490666zM127.786667 872.704a2.581333 2.581333 0 0 0 0.234666 0.490667 1.28 1.28 0 0 1-0.213333-0.490667z m518.506666 10.304l-36.458666 0.064-72 0.149333-93.546667 0.170667-99.797333 0.213333-92.053334 0.192-69.973333 0.128c-11.136 0-22.314667 0.085333-33.493333 0.064-1.301333 0-2.602667 0-3.904-0.106666-1.92-0.426667-3.84-0.938667-5.717334-1.557334a91.434667 91.434667 0 0 1-5.376-3.136c-0.938667-0.853333-1.877333-1.706667-2.773333-2.624l-1.322667-1.28a54.592 54.592 0 0 1-3.626666-6.186666 60.16 60.16 0 0 1-1.877334-6.997334c-0.426667-6.848-0.128-13.824-0.128-20.650666V166.08c0-1.429333 0-2.858667 0.149334-4.288 0.490667-2.346667 1.109333-4.650667 1.877333-6.912 0.874667-1.770667 1.856-3.456 2.901333-5.12l-1.429333 1.578667 1.642667-1.898667c0.896-1.344 2.24-2.645333 1.877333-2.090667 0.874667-0.896 1.792-1.749333 2.730667-2.56 1.749333-1.130667 3.498667-2.176 5.333333-3.136 1.856-0.618667 3.776-1.130667 5.696-1.557333 5.013333-0.298667 10.005333-0.106667 14.997333-0.106667h428.394667c19.776 0 39.573333-0.170667 59.328 0 1.130667 0 2.261333 0.042667 3.413333 0.106667 1.92 0.426667 3.797333 0.938667 5.674667 1.557333 1.834667 1.002667 3.605333 2.005333 5.376 3.136 0.938667 0.853333 1.877333 1.706667 2.773333 2.602667 0.170667 0.213333 0.725333 0.704 1.322667 1.28l0.554667 0.853333c1.109333 1.706667 2.133333 3.498667 3.050666 5.333334 0.746667 2.261333 1.386667 4.565333 1.877334 6.890666 0.298667 4.906667 0.149333 9.856 0.149333 14.741334v402.56c0 19.434667-0.405333 38.912 0 58.346666v0.789334c0 1.130667 0.064 2.24 0.213333 3.349333-0.149333 1.130667-0.213333 2.282667-0.213333 3.413333v112.469334c0 14.272-0.064 28.522667 0 42.773333a146.346667 146.346667 0 0 0 26.24 82.922667l-17.706667-0.064c-11.392-0.042667-22.784-0.042667-34.176-0.042667z m236.074667-26.346667q-2.88 3.456-6.058667 6.634667-3.2 3.2-6.656 6.058667a100.608 100.608 0 0 1-15.893333 9.28c-5.802667 2.133333-11.776 3.776-17.856 4.885333l-1.408 0.106667a30.08 30.08 0 0 0-2.986667-0.149334L804.266667 883.413333h-0.128c-7.210667-1.28-14.293333-3.2-21.12-5.802666a114.368 114.368 0 0 1-18.645334-10.901334 130.730667 130.730667 0 0 1-7.914666-7.189333 102.4 102.4 0 0 1-7.018667-7.68l-2.282667-3.285333a113.941333 113.941333 0 0 1-8.746666-15.573334 117.930667 117.930667 0 0 1-5.76-21.12c-0.64-7.253333-0.618667-14.506667-0.618667-21.824v-115.008h164.970667v122.432c0 8.490667 0.234667 17.066667-0.512 25.536a105.28 105.28 0 0 1-4.842667 17.770667c-2.176 4.650667-4.693333 9.152-7.573333 13.44l-1.706667 2.453333z" p-id="1735"></path><path d="M248.106667 384.32h300.010666c15.701333 0 30.72-13.802667 29.994667-29.994667-0.704-16.213333-13.162667-29.994667-29.994667-29.994666H248.128c-15.701333 0-30.72 13.802667-30.016 29.994666 0.746667 16.213333 13.184 29.994667 30.016 29.994667z m0 158.250667h300.010666c15.701333 0 30.72-13.802667 29.994667-30.016-0.704-16.192-13.162667-29.994667-29.994667-29.994667H248.128c-15.701333 0-30.72 13.802667-30.016 29.994667 0.746667 16.213333 13.184 30.016 30.016 30.016z m0 157.994666h110.016c15.68 0 30.72-13.802667 29.994666-29.994666-0.725333-16.213333-13.184-30.016-29.994666-30.016H248.106667c-15.701333 0-30.72 13.802667-30.016 30.016 0.746667 16.192 13.184 29.994667 30.016 29.994666z" p-id="1736"></path></svg>