<?xml version="1.0" standalone="no"?><!DOCTYPE svg PUBLIC "-//W3C//DTD SVG 1.1//EN" "http://www.w3.org/Graphics/SVG/1.1/DTD/svg11.dtd"><svg t="1704980297330" class="icon" viewBox="0 0 1024 1024" version="1.1" xmlns="http://www.w3.org/2000/svg" p-id="4649" width="32" height="32" xmlns:xlink="http://www.w3.org/1999/xlink"><path d="M512 56.888889c61.724444 0 120.775111 11.918222 177.152 35.768889a451.470222 451.470222 0 0 1 144.654222 97.536 451.484444 451.484444 0 0 1 97.536 144.64A450.218667 450.218667 0 0 1 967.111111 512c0 61.724444-11.918222 120.775111-35.768889 177.152a451.484444 451.484444 0 0 1-97.536 144.654222 451.484444 451.484444 0 0 1-144.64 97.536A450.218667 450.218667 0 0 1 512 967.111111c-61.724444 0-120.775111-11.918222-177.152-35.768889a451.484444 451.484444 0 0 1-144.654222-97.536 451.484444 451.484444 0 0 1-97.536-144.64A450.218667 450.218667 0 0 1 56.888889 512c0-61.724444 11.918222-120.775111 35.768889-177.152a451.484444 451.484444 0 0 1 97.536-144.654222 451.484444 451.484444 0 0 1 144.64-97.536A450.218667 450.218667 0 0 1 512 56.888889z m0 53.546667c-54.471111 0-106.581333 10.524444-156.302222 31.544888a398.435556 398.435556 0 0 0-127.644445 86.072889 398.421333 398.421333 0 0 0-86.072889 127.644445A397.198222 397.198222 0 0 0 110.435556 512c0 54.471111 10.524444 106.581333 31.544888 156.302222a398.421333 398.421333 0 0 0 86.072889 127.644445 398.435556 398.435556 0 0 0 127.644445 86.072889A397.198222 397.198222 0 0 0 512 913.564444c54.471111 0 106.581333-10.524444 156.302222-31.544888a398.421333 398.421333 0 0 0 127.644445-86.072889 398.421333 398.421333 0 0 0 86.072889-127.644445A397.198222 397.198222 0 0 0 913.564444 512c0-54.471111-10.524444-106.581333-31.544888-156.302222a398.421333 398.421333 0 0 0-86.072889-127.644445 398.421333 398.421333 0 0 0-127.644445-86.072889A397.198222 397.198222 0 0 0 512 110.435556z m2.104889 581.873777c11.932444 0 22.471111 3.598222 30.976 12.458667 7.793778 8.135111 12.16 18.432 12.16 30.890667 0 13.169778-4.366222 23.466667-12.856889 31.601777-8.490667 8.135111-18.346667 12.458667-30.279111 12.458667s-21.788444-4.323556-30.293333-12.458667c-8.476444-8.860444-11.918222-19.157333-11.918223-31.601777 0-12.458667 3.441778-22.755556 11.932445-30.890667 8.490667-8.860444 18.346667-12.458667 30.279111-12.458667z m10.552889-448.028444c45.198222 0 81.208889 12.458667 108.515555 39.04 26.154667 24.888889 39.452444 59.619556 39.452445 103.68 0 33.052444-9.173333 61.781333-26.609778 85.973333-3.271111 4.053333-9.031111 10.282667-17.294222 18.602667l-4.764445 4.736a1569.564444 1569.564444 0 0 1-35.057777 33.408c-15.601778 13.880889-26.168889 27.306667-33.28 40.462222-9.173333 16.042667-13.297778 33.763556-13.297778 53.646222v16.995556h-56.433778v-16.995556c0-24.177778 4.352-45.511111 12.842667-63.943111 9.870222-22.030222 33.038222-50.048 71.111111-85.248 11.249778-11.960889 19.740444-20.821333 23.864889-26.567111 14.222222-18.446222 21.105778-37.603556 21.105777-58.197333 0-29.44-8.248889-52.195556-23.850666-68.48-16.298667-17.493333-39.466667-25.628444-69.063111-25.628445-35.328 0-61.240889 11.733333-78.222223 35.925334-15.601778 20.835556-23.182222 48.611556-23.182222 84.764444h-55.736889c0-51.484444 13.312-92.672 41.528889-123.562667 28.216889-32.568889 67.669333-48.611556 118.371556-48.611555z" p-id="4650"></path></svg>